<svg width="116" height="19" viewBox="0 0 116 19" fill="none" xmlns="http://www.w3.org/2000/svg">
<path d="M10.145 18.7487H0.609853C0.52665 18.7611 0.441691 18.7539 0.361797 18.7275C0.281903 18.7012 0.209299 18.6565 0.149813 18.597C0.0903262 18.5375 0.045614 18.4649 0.0192651 18.385C-0.00708379 18.3051 -0.0143355 18.2201 -0.00190806 18.1369V0.612051C-0.0143355 0.528847 -0.00708379 0.443888 0.0192651 0.363994C0.045614 0.284101 0.0903262 0.211497 0.149813 0.15201C0.209299 0.0925234 0.281903 0.0478113 0.361797 0.0214624C0.441691 -0.00488653 0.52665 -0.0121383 0.609853 0.000289209H10.145C10.536 0.000289209 10.7292 0.202676 10.7292 0.612051V2.59452C10.7292 3.0039 10.536 3.20629 10.145 3.20629H4.05044C3.81585 3.20629 3.70086 3.31668 3.70086 3.52827V7.31843C3.70086 7.53461 3.81585 7.64041 4.05044 7.64041H9.03652C9.12041 7.62635 9.20644 7.63238 9.28755 7.658C9.36866 7.68363 9.44254 7.72811 9.50313 7.7878C9.56373 7.8475 9.60931 7.92071 9.63614 8.00143C9.66297 8.08215 9.67028 8.16808 9.65748 8.25217V10.2346C9.66991 10.3178 9.66266 10.4028 9.63631 10.4827C9.60996 10.5626 9.56525 10.6352 9.50576 10.6947C9.44627 10.7542 9.37367 10.7989 9.29377 10.8252C9.21388 10.8516 9.12892 10.8588 9.04572 10.8464H4.05044C3.81585 10.8464 3.70086 10.9568 3.70086 11.1684V15.2207C3.70086 15.4369 3.81585 15.5427 4.05044 15.5427H10.145C10.536 15.5427 10.7292 15.7451 10.7292 16.1545V18.1369C10.7292 18.5463 10.536 18.7487 10.145 18.7487Z" fill="#263349"/>
<path d="M19.6222 18.7486H17.2028C17.1198 18.7601 17.0352 18.7521 16.9558 18.7254C16.8763 18.6987 16.8042 18.654 16.7449 18.5947C16.6857 18.5355 16.6409 18.4633 16.6142 18.3839C16.5875 18.3044 16.5796 18.2199 16.591 18.1369V0.611972C16.5796 0.528953 16.5875 0.444412 16.6142 0.364975C16.6409 0.285538 16.6857 0.213363 16.7449 0.154105C16.8042 0.0948467 16.8763 0.0501153 16.9558 0.0234157C17.0352 -0.00328385 17.1198 -0.0112262 17.2028 0.000210907H19.3922C19.5532 -0.0198996 19.7166 0.00827654 19.8615 0.0811631C20.0065 0.15405 20.1265 0.26836 20.2064 0.409585L26.0986 11.4489H26.2182V0.611972C26.2069 0.529388 26.2148 0.445315 26.2413 0.366272C26.2677 0.287229 26.312 0.215341 26.3707 0.156181C26.4295 0.0970203 26.501 0.0521777 26.5798 0.0251297C26.6587 -0.00191833 26.7427 -0.010445 26.8254 0.000210907H29.2494C29.3324 -0.0112262 29.417 -0.00328385 29.4964 0.0234157C29.5758 0.0501153 29.648 0.0948467 29.7073 0.154105C29.7665 0.213363 29.8113 0.285538 29.838 0.364975C29.8647 0.444412 29.8726 0.528953 29.8612 0.611972V18.1369C29.8726 18.2199 29.8647 18.3044 29.838 18.3839C29.8113 18.4633 29.7665 18.5355 29.7073 18.5947C29.648 18.654 29.5758 18.6987 29.4964 18.7254C29.417 18.7521 29.3324 18.7601 29.2494 18.7486H27.1381C26.9446 18.7543 26.7537 18.7022 26.5899 18.599C26.4261 18.4957 26.2967 18.3461 26.2182 18.1691L20.3536 7.31835H20.2386V18.1369C20.2502 18.2203 20.2422 18.3053 20.2153 18.3852C20.1883 18.465 20.1431 18.5375 20.0833 18.5968C20.0235 18.6562 19.9507 18.7008 19.8707 18.7272C19.7907 18.7535 19.7056 18.7609 19.6222 18.7486Z" fill="#263349"/>
<path d="M43.8828 18.7484H40.7918C39.2555 18.7484 38.0687 18.3437 37.2362 17.5249C36.4036 16.7062 35.9805 15.5332 35.9805 13.9969V4.75152C35.9805 3.21828 36.399 2.04229 37.2362 1.22354C38.0733 0.404792 39.2585 -0.00304931 40.7918 1.71631e-05H43.8828C45.4007 1.71631e-05 46.5736 0.413991 47.4107 1.23734C48.2479 2.06069 48.6665 3.23821 48.6665 4.75152V5.63006C48.6665 6.05783 48.4595 6.26942 48.0547 6.26942H45.5755C45.1661 6.26942 44.9637 6.05783 44.9637 5.63006V4.92631C45.0091 4.45229 44.8726 3.97873 44.5819 3.60159C44.3993 3.45481 44.1895 3.34553 43.9645 3.28002C43.7396 3.2145 43.5039 3.19404 43.271 3.21981H41.3943C40.9267 3.17587 40.4607 3.318 40.0972 3.61539C39.7982 3.98875 39.6563 4.4639 39.7016 4.9401V13.8221C39.6563 14.2983 39.7982 14.7735 40.0972 15.1469C40.4607 15.4442 40.9267 15.5864 41.3943 15.5424H43.2894C43.5232 15.5663 43.7594 15.5436 43.9844 15.4757C44.2094 15.4078 44.4187 15.2961 44.6003 15.1469C44.891 14.7697 45.0275 14.2962 44.9821 13.8221V11.9823C44.9882 11.9385 44.9841 11.894 44.9701 11.8522C44.9561 11.8103 44.9325 11.7723 44.9013 11.7411C44.8701 11.7098 44.8321 11.6863 44.7902 11.6723C44.7484 11.6583 44.7038 11.6542 44.6601 11.6603H42.8892C42.8053 11.6721 42.7198 11.664 42.6396 11.6368C42.5594 11.6097 42.4866 11.5641 42.4271 11.5037C42.3677 11.4433 42.3232 11.3699 42.2972 11.2893C42.2712 11.2086 42.2644 11.123 42.2775 11.0393V9.07064C42.2652 8.98727 42.2726 8.9022 42.2989 8.82217C42.3253 8.74213 42.3699 8.66933 42.4293 8.60952C42.4886 8.54972 42.5611 8.50456 42.6409 8.47761C42.7208 8.45067 42.8058 8.44268 42.8892 8.45428H47.9949C48.0861 8.4412 48.1792 8.44956 48.2666 8.47868C48.354 8.50781 48.4335 8.5569 48.4987 8.62207C48.5638 8.68724 48.6129 8.7667 48.6421 8.85414C48.6712 8.94158 48.6795 9.03461 48.6665 9.12584V13.9969C48.6665 15.5148 48.2479 16.6832 47.4107 17.5111C46.5736 18.3391 45.4007 18.7484 43.8828 18.7484Z" fill="#263349"/>
<path d="M57.8821 18.7487H55.4028C55.3196 18.7611 55.2347 18.7539 55.1548 18.7275C55.0749 18.7012 55.0023 18.6565 54.9428 18.597C54.8833 18.5375 54.8386 18.4649 54.8122 18.385C54.7859 18.3051 54.7786 18.2201 54.7911 18.1369V0.612051C54.7786 0.528847 54.7859 0.443888 54.8122 0.363994C54.8386 0.284101 54.8833 0.211497 54.9428 0.15201C55.0023 0.0925234 55.0749 0.0478113 55.1548 0.0214624C55.2347 -0.00488653 55.3196 -0.0121383 55.4028 0.000289209H62.3438C63.8617 0.000289209 65.0438 0.418863 65.8994 1.25601C66.7549 2.09316 67.1827 3.26608 67.1827 4.78399V7.05624C67.1827 9.2549 66.3179 10.713 64.5884 11.4306V11.5456L67.707 18.0495C67.8818 18.5095 67.707 18.7487 67.2149 18.7487H64.8552C64.5969 18.765 64.3381 18.7258 64.0963 18.6337C63.9128 18.5211 63.7782 18.3439 63.7191 18.1369L60.8029 11.8399H58.848C58.6134 11.8399 58.4984 11.9457 58.4984 12.1619V18.1415C58.5102 18.2248 58.5023 18.3097 58.4754 18.3894C58.4484 18.4691 58.4032 18.5414 58.3433 18.6004C58.2833 18.6595 58.2104 18.7037 58.1303 18.7294C58.0502 18.7551 57.9652 18.7618 57.8821 18.7487ZM58.802 8.86393H61.6584C62.1508 8.90772 62.6421 8.76853 63.0383 8.47295C63.1967 8.30424 63.3176 8.10386 63.3929 7.88504C63.4682 7.66621 63.4963 7.4339 63.4753 7.20343V4.92658C63.4968 4.68975 63.469 4.45104 63.3938 4.22545C63.3186 3.99985 63.1976 3.79225 63.0383 3.61566C62.647 3.30909 62.1537 3.16275 61.6584 3.20629H58.802C58.7583 3.20016 58.7138 3.20427 58.6719 3.21829C58.63 3.2323 58.592 3.25585 58.5608 3.28706C58.5296 3.31827 58.506 3.3563 58.492 3.39816C58.478 3.44001 58.4739 3.48455 58.48 3.52827V8.54655C58.4731 8.59147 58.4771 8.63741 58.4918 8.68041C58.5066 8.72342 58.5315 8.7622 58.5646 8.79342C58.5976 8.82465 58.6377 8.84738 58.6815 8.85966C58.7253 8.87194 58.7713 8.87341 58.8158 8.86393H58.802Z" fill="#263349"/>
<path d="M75.3208 18.7485H72.5196C72.17 18.7485 72.0596 18.5461 72.17 18.1368L76.7697 0.611866C76.8218 0.422499 76.9388 0.257466 77.1002 0.145633C77.2617 0.0337995 77.4573 -0.0177133 77.6529 0.0001047H81.5304C81.7269 -0.0265493 81.9262 0.0215285 82.0889 0.134821C82.2516 0.248113 82.3658 0.418362 82.409 0.611866L87.0087 18.1368C87.1283 18.5461 87.0087 18.7485 86.6591 18.7485H83.8625C83.7811 18.7607 83.698 18.7555 83.6187 18.7333C83.5395 18.7111 83.4658 18.6724 83.4025 18.6197C83.3094 18.482 83.2495 18.3246 83.2277 18.1598L82.4136 14.94H76.7513L75.9326 18.1598C75.9151 18.328 75.8496 18.4876 75.744 18.6197C75.6253 18.7165 75.4733 18.7627 75.3208 18.7485ZM79.548 3.52808L77.4505 11.9593H81.765L79.6675 3.52808H79.548Z" fill="#263349"/>
<path d="M96.0798 0.612051V18.1369C96.0912 18.22 96.0833 18.3045 96.0566 18.3839C96.0299 18.4634 95.9851 18.5356 95.9259 18.5948C95.8666 18.6541 95.7944 18.6988 95.715 18.7255C95.6356 18.7522 95.551 18.7601 95.468 18.7487H92.9888C92.9056 18.7611 92.8206 18.7539 92.7407 18.7275C92.6608 18.7012 92.5882 18.6565 92.5287 18.597C92.4692 18.5375 92.4245 18.4649 92.3982 18.385C92.3718 18.3051 92.3646 18.2201 92.377 18.1369V0.612051C92.3646 0.528847 92.3718 0.443888 92.3982 0.363994C92.4245 0.284101 92.4692 0.211497 92.5287 0.15201C92.5882 0.0925234 92.6608 0.0478113 92.7407 0.0214624C92.8206 -0.00488653 92.9056 -0.0121383 92.9888 0.000289209H95.468C95.551 -0.0111479 95.6356 -0.00320555 95.715 0.023494C95.7944 0.0501936 95.8666 0.094925 95.9259 0.154183C95.9851 0.213441 96.0299 0.285617 96.0566 0.365054C96.0833 0.44449 96.0912 0.529031 96.0798 0.612051Z" fill="#263349"/>
<path d="M105.673 18.7486H103.254C103.171 18.76 103.086 18.7521 103.007 18.7254C102.927 18.6987 102.855 18.654 102.796 18.5947C102.736 18.5354 102.692 18.4633 102.665 18.3838C102.638 18.3044 102.63 18.2198 102.642 18.1368V0.611935C102.63 0.528915 102.638 0.444375 102.665 0.364938C102.692 0.285501 102.736 0.213326 102.796 0.154067C102.855 0.0948091 102.927 0.0500777 103.007 0.0233781C103.086 -0.00332141 103.171 -0.0112638 103.254 0.000173343H105.443C105.603 -0.0189848 105.766 0.00965408 105.91 0.082491C106.054 0.155328 106.173 0.269113 106.253 0.409547L112.145 11.4488H112.26V0.611935C112.248 0.528476 112.256 0.443463 112.283 0.363626C112.31 0.28379 112.355 0.211323 112.415 0.151965C112.475 0.0926074 112.548 0.0479885 112.628 0.0216421C112.708 -0.00470432 112.793 -0.0120546 112.876 0.000173343H115.3C115.383 -0.0112638 115.468 -0.00332141 115.547 0.0233781C115.627 0.0500777 115.699 0.0948091 115.758 0.154067C115.817 0.213326 115.862 0.285501 115.889 0.364938C115.915 0.444375 115.923 0.528915 115.912 0.611935V18.1368C115.923 18.2198 115.915 18.3044 115.889 18.3838C115.862 18.4633 115.817 18.5354 115.758 18.5947C115.699 18.654 115.627 18.6987 115.547 18.7254C115.468 18.7521 115.383 18.76 115.3 18.7486H113.152C112.959 18.7542 112.768 18.7021 112.604 18.5989C112.44 18.4957 112.311 18.3461 112.232 18.169L106.404 7.31831H106.289V18.1368C106.301 18.2203 106.293 18.3053 106.266 18.3851C106.239 18.465 106.194 18.5374 106.134 18.5968C106.074 18.6562 106.002 18.7008 105.921 18.7271C105.841 18.7535 105.756 18.7608 105.673 18.7486Z" fill="#263349"/>
</svg>
